<svg xmlns="http://www.w3.org/2000/svg" xmlns:xlink="http://www.w3.org/1999/xlink" width="500" zoomAndPan="magnify" viewBox="0 0 375 374.999991" height="500" preserveAspectRatio="xMidYMid meet" version="1.0"><defs><g/><clipPath id="efed5def37"><path d="M 7.585938 133.960938 L 114.835938 133.960938 L 114.835938 241.203125 L 7.585938 241.203125 Z M 7.585938 133.960938 " clip-rule="nonzero"/></clipPath></defs><g fill="#ffffff" fill-opacity="1"><g transform="translate(121.606879, 170.37992)"><g><path d="M 6.3125 0.234375 C 5.675781 0.234375 5.066406 0.140625 4.484375 -0.046875 C 3.910156 -0.242188 3.382812 -0.515625 2.90625 -0.859375 C 2.425781 -1.210938 2.007812 -1.625 1.65625 -2.09375 C 1.300781 -2.570312 1.023438 -3.097656 0.828125 -3.671875 C 0.640625 -4.242188 0.546875 -4.847656 0.546875 -5.484375 C 0.546875 -6.128906 0.640625 -6.738281 0.828125 -7.3125 C 1.023438 -7.882812 1.300781 -8.40625 1.65625 -8.875 C 2.007812 -9.351562 2.425781 -9.765625 2.90625 -10.109375 C 3.394531 -10.460938 3.925781 -10.734375 4.5 -10.921875 C 5.082031 -11.117188 5.695312 -11.21875 6.34375 -11.21875 C 6.8125 -11.21875 7.273438 -11.160156 7.734375 -11.046875 C 8.203125 -10.941406 8.648438 -10.78125 9.078125 -10.5625 C 9.503906 -10.34375 9.894531 -10.078125 10.25 -9.765625 C 10.601562 -9.453125 10.90625 -9.09375 11.15625 -8.6875 C 11.40625 -8.28125 11.582031 -7.832031 11.6875 -7.34375 L 9.65625 -7.34375 C 9.363281 -7.976562 8.925781 -8.472656 8.34375 -8.828125 C 7.757812 -9.191406 7.078125 -9.375 6.296875 -9.375 C 5.785156 -9.375 5.300781 -9.28125 4.84375 -9.09375 C 4.382812 -8.914062 3.984375 -8.65625 3.640625 -8.3125 C 3.296875 -7.96875 3.023438 -7.554688 2.828125 -7.078125 C 2.628906 -6.597656 2.53125 -6.066406 2.53125 -5.484375 C 2.53125 -4.890625 2.628906 -4.351562 2.828125 -3.875 C 3.023438 -3.40625 3.296875 -3 3.640625 -2.65625 C 3.984375 -2.320312 4.382812 -2.0625 4.84375 -1.875 C 5.300781 -1.695312 5.785156 -1.609375 6.296875 -1.609375 C 6.953125 -1.609375 7.519531 -1.71875 8 -1.9375 C 8.476562 -2.164062 8.863281 -2.472656 9.15625 -2.859375 C 9.457031 -3.253906 9.660156 -3.707031 9.765625 -4.21875 L 6.21875 -4.21875 L 6.21875 -5.890625 L 11.9375 -5.890625 C 11.945312 -4.992188 11.828125 -4.171875 11.578125 -3.421875 C 11.328125 -2.671875 10.957031 -2.019531 10.46875 -1.46875 C 9.988281 -0.925781 9.398438 -0.503906 8.703125 -0.203125 C 8.003906 0.0859375 7.207031 0.234375 6.3125 0.234375 Z M 6.3125 0.234375 "/></g></g></g><g fill="#ffffff" fill-opacity="1"><g transform="translate(134.515625, 170.37992)"><g><path d="M 3.3125 0 L 1.3125 0 L 1.3125 -10.953125 L 6.03125 -10.953125 C 6.582031 -10.953125 7.09375 -10.867188 7.5625 -10.703125 C 8.03125 -10.535156 8.429688 -10.289062 8.765625 -9.96875 C 9.097656 -9.65625 9.359375 -9.28125 9.546875 -8.84375 C 9.742188 -8.40625 9.84375 -7.921875 9.84375 -7.390625 C 9.84375 -6.867188 9.75 -6.394531 9.5625 -5.96875 C 9.375 -5.550781 9.113281 -5.191406 8.78125 -4.890625 C 8.445312 -4.585938 8.054688 -4.359375 7.609375 -4.203125 L 10.09375 0 L 7.78125 0 L 5.609375 -3.890625 C 5.546875 -3.890625 5.476562 -3.890625 5.40625 -3.890625 C 5.332031 -3.890625 5.257812 -3.890625 5.1875 -3.890625 L 3.3125 -3.890625 Z M 3.3125 -9.171875 L 3.3125 -5.578125 L 5.96875 -5.578125 C 6.320312 -5.578125 6.640625 -5.65625 6.921875 -5.8125 C 7.203125 -5.96875 7.421875 -6.179688 7.578125 -6.453125 C 7.742188 -6.722656 7.828125 -7.035156 7.828125 -7.390625 C 7.828125 -7.722656 7.742188 -8.019531 7.578125 -8.28125 C 7.410156 -8.550781 7.1875 -8.765625 6.90625 -8.921875 C 6.625 -9.085938 6.304688 -9.171875 5.953125 -9.171875 Z M 3.3125 -9.171875 "/></g></g></g><g fill="#ffffff" fill-opacity="1"><g transform="translate(145.377984, 170.37992)"><g><path d="M 8.890625 0 L 1.3125 0 L 1.3125 -10.953125 L 8.8125 -10.953125 L 8.8125 -9.15625 L 3.3125 -9.15625 L 3.3125 -6.40625 L 8.0625 -6.40625 L 8.0625 -4.71875 L 3.3125 -4.71875 L 3.3125 -1.796875 L 8.890625 -1.796875 Z M 8.890625 0 "/></g></g></g><g fill="#ffffff" fill-opacity="1"><g transform="translate(155.21715, 170.37992)"><g><path d="M 11.09375 0 L 8.96875 0 L 8.109375 -2.125 L 3.0625 -2.125 L 2.1875 0 L 0.078125 0 L 4.625 -10.96875 L 6.53125 -10.96875 Z M 5.515625 -8.109375 L 3.75 -3.796875 L 7.421875 -3.796875 L 5.640625 -8.109375 L 5.59375 -8.375 L 5.578125 -8.375 Z M 5.515625 -8.109375 "/></g></g></g><g fill="#ffffff" fill-opacity="1"><g transform="translate(166.82072, 170.37992)"><g><path d="M 5.609375 0 L 3.609375 0 L 3.609375 -9.171875 L 0.34375 -9.171875 L 0.34375 -10.953125 L 8.875 -10.953125 L 8.875 -9.171875 L 5.609375 -9.171875 Z M 5.609375 0 "/></g></g></g><g fill="#ffffff" fill-opacity="1"><g transform="translate(176.466527, 170.37992)"><g/></g></g><g fill="#ffffff" fill-opacity="1"><g transform="translate(180.915801, 170.37992)"><g><path d="M 6.3125 0.234375 C 5.664062 0.234375 5.050781 0.140625 4.46875 -0.046875 C 3.894531 -0.242188 3.367188 -0.515625 2.890625 -0.859375 C 2.410156 -1.210938 1.992188 -1.625 1.640625 -2.09375 C 1.285156 -2.570312 1.007812 -3.097656 0.8125 -3.671875 C 0.625 -4.253906 0.53125 -4.863281 0.53125 -5.5 C 0.53125 -6.132812 0.625 -6.738281 0.8125 -7.3125 C 1.007812 -7.882812 1.285156 -8.40625 1.640625 -8.875 C 1.992188 -9.351562 2.410156 -9.765625 2.890625 -10.109375 C 3.367188 -10.460938 3.894531 -10.734375 4.46875 -10.921875 C 5.050781 -11.117188 5.664062 -11.21875 6.3125 -11.21875 C 6.894531 -11.21875 7.46875 -11.128906 8.03125 -10.953125 C 8.601562 -10.785156 9.132812 -10.523438 9.625 -10.171875 C 10.125 -9.816406 10.546875 -9.367188 10.890625 -8.828125 C 11.234375 -8.296875 11.472656 -7.664062 11.609375 -6.9375 L 9.5625 -6.9375 C 9.414062 -7.5 9.179688 -7.957031 8.859375 -8.3125 C 8.535156 -8.675781 8.148438 -8.941406 7.703125 -9.109375 C 7.265625 -9.285156 6.785156 -9.375 6.265625 -9.375 C 5.742188 -9.375 5.257812 -9.28125 4.8125 -9.09375 C 4.363281 -8.914062 3.96875 -8.65625 3.625 -8.3125 C 3.28125 -7.96875 3.007812 -7.554688 2.8125 -7.078125 C 2.625 -6.597656 2.53125 -6.066406 2.53125 -5.484375 C 2.53125 -4.890625 2.625 -4.351562 2.8125 -3.875 C 3.007812 -3.40625 3.28125 -3 3.625 -2.65625 C 3.96875 -2.320312 4.363281 -2.0625 4.8125 -1.875 C 5.257812 -1.695312 5.742188 -1.609375 6.265625 -1.609375 C 6.785156 -1.609375 7.265625 -1.691406 7.703125 -1.859375 C 8.148438 -2.035156 8.535156 -2.300781 8.859375 -2.65625 C 9.179688 -3.019531 9.410156 -3.484375 9.546875 -4.046875 L 11.609375 -4.046875 C 11.472656 -3.316406 11.234375 -2.679688 10.890625 -2.140625 C 10.546875 -1.597656 10.128906 -1.148438 9.640625 -0.796875 C 9.148438 -0.453125 8.617188 -0.191406 8.046875 -0.015625 C 7.472656 0.148438 6.894531 0.234375 6.3125 0.234375 Z M 6.3125 0.234375 "/></g></g></g><g fill="#ffffff" fill-opacity="1"><g transform="translate(193.486168, 170.37992)"><g><path d="M 3.3125 0 L 1.3125 0 L 1.3125 -10.953125 L 3.3125 -10.953125 L 3.3125 -6.40625 L 8.84375 -6.40625 L 8.84375 -10.953125 L 10.859375 -10.953125 L 10.859375 0 L 8.84375 0 L 8.84375 -4.625 L 3.3125 -4.625 Z M 3.3125 0 "/></g></g></g><g fill="#ffffff" fill-opacity="1"><g transform="translate(206.072648, 170.37992)"><g><path d="M 6.4375 0.234375 C 5.789062 0.234375 5.171875 0.140625 4.578125 -0.046875 C 3.984375 -0.242188 3.441406 -0.515625 2.953125 -0.859375 C 2.460938 -1.210938 2.035156 -1.625 1.671875 -2.09375 C 1.304688 -2.570312 1.023438 -3.097656 0.828125 -3.671875 C 0.628906 -4.253906 0.53125 -4.863281 0.53125 -5.5 C 0.53125 -6.132812 0.628906 -6.738281 0.828125 -7.3125 C 1.023438 -7.882812 1.304688 -8.40625 1.671875 -8.875 C 2.035156 -9.351562 2.460938 -9.765625 2.953125 -10.109375 C 3.441406 -10.460938 3.984375 -10.734375 4.578125 -10.921875 C 5.171875 -11.117188 5.789062 -11.21875 6.4375 -11.21875 C 7.082031 -11.21875 7.703125 -11.117188 8.296875 -10.921875 C 8.890625 -10.734375 9.429688 -10.460938 9.921875 -10.109375 C 10.421875 -9.765625 10.847656 -9.351562 11.203125 -8.875 C 11.566406 -8.40625 11.847656 -7.882812 12.046875 -7.3125 C 12.242188 -6.738281 12.34375 -6.132812 12.34375 -5.5 C 12.34375 -4.863281 12.242188 -4.253906 12.046875 -3.671875 C 11.847656 -3.097656 11.566406 -2.570312 11.203125 -2.09375 C 10.847656 -1.625 10.421875 -1.210938 9.921875 -0.859375 C 9.429688 -0.515625 8.890625 -0.242188 8.296875 -0.046875 C 7.710938 0.140625 7.09375 0.234375 6.4375 0.234375 Z M 6.4375 -1.609375 C 6.976562 -1.609375 7.484375 -1.703125 7.953125 -1.890625 C 8.429688 -2.085938 8.847656 -2.359375 9.203125 -2.703125 C 9.566406 -3.054688 9.847656 -3.46875 10.046875 -3.9375 C 10.253906 -4.414062 10.359375 -4.929688 10.359375 -5.484375 C 10.359375 -6.046875 10.253906 -6.5625 10.046875 -7.03125 C 9.847656 -7.507812 9.566406 -7.921875 9.203125 -8.265625 C 8.847656 -8.617188 8.429688 -8.890625 7.953125 -9.078125 C 7.484375 -9.273438 6.976562 -9.375 6.4375 -9.375 C 5.894531 -9.375 5.390625 -9.273438 4.921875 -9.078125 C 4.453125 -8.890625 4.035156 -8.617188 3.671875 -8.265625 C 3.316406 -7.921875 3.035156 -7.507812 2.828125 -7.03125 C 2.628906 -6.5625 2.53125 -6.046875 2.53125 -5.484375 C 2.53125 -4.929688 2.628906 -4.414062 2.828125 -3.9375 C 3.035156 -3.46875 3.316406 -3.054688 3.671875 -2.703125 C 4.035156 -2.359375 4.453125 -2.085938 4.921875 -1.890625 C 5.390625 -1.703125 5.894531 -1.609375 6.4375 -1.609375 Z M 6.4375 -1.609375 "/></g></g></g><g fill="#ffffff" fill-opacity="1"><g transform="translate(219.384231, 170.37992)"><g><path d="M 3.3125 0 L 1.3125 0 L 1.3125 -10.953125 L 3.3125 -10.953125 Z M 3.3125 0 "/></g></g></g><g fill="#ffffff" fill-opacity="1"><g transform="translate(224.421634, 170.37992)"><g><path d="M 6.3125 0.234375 C 5.664062 0.234375 5.050781 0.140625 4.46875 -0.046875 C 3.894531 -0.242188 3.367188 -0.515625 2.890625 -0.859375 C 2.410156 -1.210938 1.992188 -1.625 1.640625 -2.09375 C 1.285156 -2.570312 1.007812 -3.097656 0.8125 -3.671875 C 0.625 -4.253906 0.53125 -4.863281 0.53125 -5.5 C 0.53125 -6.132812 0.625 -6.738281 0.8125 -7.3125 C 1.007812 -7.882812 1.285156 -8.40625 1.640625 -8.875 C 1.992188 -9.351562 2.410156 -9.765625 2.890625 -10.109375 C 3.367188 -10.460938 3.894531 -10.734375 4.46875 -10.921875 C 5.050781 -11.117188 5.664062 -11.21875 6.3125 -11.21875 C 6.894531 -11.21875 7.46875 -11.128906 8.03125 -10.953125 C 8.601562 -10.785156 9.132812 -10.523438 9.625 -10.171875 C 10.125 -9.816406 10.546875 -9.367188 10.890625 -8.828125 C 11.234375 -8.296875 11.472656 -7.664062 11.609375 -6.9375 L 9.5625 -6.9375 C 9.414062 -7.5 9.179688 -7.957031 8.859375 -8.3125 C 8.535156 -8.675781 8.148438 -8.941406 7.703125 -9.109375 C 7.265625 -9.285156 6.785156 -9.375 6.265625 -9.375 C 5.742188 -9.375 5.257812 -9.28125 4.8125 -9.09375 C 4.363281 -8.914062 3.96875 -8.65625 3.625 -8.3125 C 3.28125 -7.96875 3.007812 -7.554688 2.8125 -7.078125 C 2.625 -6.597656 2.53125 -6.066406 2.53125 -5.484375 C 2.53125 -4.890625 2.625 -4.351562 2.8125 -3.875 C 3.007812 -3.40625 3.28125 -3 3.625 -2.65625 C 3.96875 -2.320312 4.363281 -2.0625 4.8125 -1.875 C 5.257812 -1.695312 5.742188 -1.609375 6.265625 -1.609375 C 6.785156 -1.609375 7.265625 -1.691406 7.703125 -1.859375 C 8.148438 -2.035156 8.535156 -2.300781 8.859375 -2.65625 C 9.179688 -3.019531 9.410156 -3.484375 9.546875 -4.046875 L 11.609375 -4.046875 C 11.472656 -3.316406 11.234375 -2.679688 10.890625 -2.140625 C 10.546875 -1.597656 10.128906 -1.148438 9.640625 -0.796875 C 9.148438 -0.453125 8.617188 -0.191406 8.046875 -0.015625 C 7.472656 0.148438 6.894531 0.234375 6.3125 0.234375 Z M 6.3125 0.234375 "/></g></g></g><g fill="#ffffff" fill-opacity="1"><g transform="translate(236.991995, 170.37992)"><g><path d="M 8.890625 0 L 1.3125 0 L 1.3125 -10.953125 L 8.8125 -10.953125 L 8.8125 -9.15625 L 3.3125 -9.15625 L 3.3125 -6.40625 L 8.0625 -6.40625 L 8.0625 -4.71875 L 3.3125 -4.71875 L 3.3125 -1.796875 L 8.890625 -1.796875 Z M 8.890625 0 "/></g></g></g><g fill="#ffffff" fill-opacity="1"><g transform="translate(246.831156, 170.37992)"><g/></g></g><g fill="#ffffff" fill-opacity="1"><g transform="translate(251.280424, 170.37992)"><g><path d="M 3.3125 0 L 1.3125 0 L 1.3125 -10.953125 L 8.8125 -10.953125 L 8.8125 -9.15625 L 3.3125 -9.15625 L 3.3125 -6 L 8.0625 -6 L 8.0625 -4.296875 L 3.3125 -4.296875 Z M 3.3125 0 "/></g></g></g><g fill="#ffffff" fill-opacity="1"><g transform="translate(260.990678, 170.37992)"><g><path d="M 8.265625 0 L 1.3125 0 L 1.3125 -10.953125 L 3.3125 -10.953125 L 3.3125 -1.796875 L 8.265625 -1.796875 Z M 8.265625 0 "/></g></g></g><g fill="#ffffff" fill-opacity="1"><g transform="translate(270.000004, 170.37992)"><g><path d="M 6.4375 0.234375 C 5.789062 0.234375 5.171875 0.140625 4.578125 -0.046875 C 3.984375 -0.242188 3.441406 -0.515625 2.953125 -0.859375 C 2.460938 -1.210938 2.035156 -1.625 1.671875 -2.09375 C 1.304688 -2.570312 1.023438 -3.097656 0.828125 -3.671875 C 0.628906 -4.253906 0.53125 -4.863281 0.53125 -5.5 C 0.53125 -6.132812 0.628906 -6.738281 0.828125 -7.3125 C 1.023438 -7.882812 1.304688 -8.40625 1.671875 -8.875 C 2.035156 -9.351562 2.460938 -9.765625 2.953125 -10.109375 C 3.441406 -10.460938 3.984375 -10.734375 4.578125 -10.921875 C 5.171875 -11.117188 5.789062 -11.21875 6.4375 -11.21875 C 7.082031 -11.21875 7.703125 -11.117188 8.296875 -10.921875 C 8.890625 -10.734375 9.429688 -10.460938 9.921875 -10.109375 C 10.421875 -9.765625 10.847656 -9.351562 11.203125 -8.875 C 11.566406 -8.40625 11.847656 -7.882812 12.046875 -7.3125 C 12.242188 -6.738281 12.34375 -6.132812 12.34375 -5.5 C 12.34375 -4.863281 12.242188 -4.253906 12.046875 -3.671875 C 11.847656 -3.097656 11.566406 -2.570312 11.203125 -2.09375 C 10.847656 -1.625 10.421875 -1.210938 9.921875 -0.859375 C 9.429688 -0.515625 8.890625 -0.242188 8.296875 -0.046875 C 7.710938 0.140625 7.09375 0.234375 6.4375 0.234375 Z M 6.4375 -1.609375 C 6.976562 -1.609375 7.484375 -1.703125 7.953125 -1.890625 C 8.429688 -2.085938 8.847656 -2.359375 9.203125 -2.703125 C 9.566406 -3.054688 9.847656 -3.46875 10.046875 -3.9375 C 10.253906 -4.414062 10.359375 -4.929688 10.359375 -5.484375 C 10.359375 -6.046875 10.253906 -6.5625 10.046875 -7.03125 C 9.847656 -7.507812 9.566406 -7.921875 9.203125 -8.265625 C 8.847656 -8.617188 8.429688 -8.890625 7.953125 -9.078125 C 7.484375 -9.273438 6.976562 -9.375 6.4375 -9.375 C 5.894531 -9.375 5.390625 -9.273438 4.921875 -9.078125 C 4.453125 -8.890625 4.035156 -8.617188 3.671875 -8.265625 C 3.316406 -7.921875 3.035156 -7.507812 2.828125 -7.03125 C 2.628906 -6.5625 2.53125 -6.046875 2.53125 -5.484375 C 2.53125 -4.929688 2.628906 -4.414062 2.828125 -3.9375 C 3.035156 -3.46875 3.316406 -3.054688 3.671875 -2.703125 C 4.035156 -2.359375 4.453125 -2.085938 4.921875 -1.890625 C 5.390625 -1.703125 5.894531 -1.609375 6.4375 -1.609375 Z M 6.4375 -1.609375 "/></g></g></g><g fill="#ffffff" fill-opacity="1"><g transform="translate(283.311587, 170.37992)"><g><path d="M 6.4375 0.234375 C 5.789062 0.234375 5.171875 0.140625 4.578125 -0.046875 C 3.984375 -0.242188 3.441406 -0.515625 2.953125 -0.859375 C 2.460938 -1.210938 2.035156 -1.625 1.671875 -2.09375 C 1.304688 -2.570312 1.023438 -3.097656 0.828125 -3.671875 C 0.628906 -4.253906 0.53125 -4.863281 0.53125 -5.5 C 0.53125 -6.132812 0.628906 -6.738281 0.828125 -7.3125 C 1.023438 -7.882812 1.304688 -8.40625 1.671875 -8.875 C 2.035156 -9.351562 2.460938 -9.765625 2.953125 -10.109375 C 3.441406 -10.460938 3.984375 -10.734375 4.578125 -10.921875 C 5.171875 -11.117188 5.789062 -11.21875 6.4375 -11.21875 C 7.082031 -11.21875 7.703125 -11.117188 8.296875 -10.921875 C 8.890625 -10.734375 9.429688 -10.460938 9.921875 -10.109375 C 10.421875 -9.765625 10.847656 -9.351562 11.203125 -8.875 C 11.566406 -8.40625 11.847656 -7.882812 12.046875 -7.3125 C 12.242188 -6.738281 12.34375 -6.132812 12.34375 -5.5 C 12.34375 -4.863281 12.242188 -4.253906 12.046875 -3.671875 C 11.847656 -3.097656 11.566406 -2.570312 11.203125 -2.09375 C 10.847656 -1.625 10.421875 -1.210938 9.921875 -0.859375 C 9.429688 -0.515625 8.890625 -0.242188 8.296875 -0.046875 C 7.710938 0.140625 7.09375 0.234375 6.4375 0.234375 Z M 6.4375 -1.609375 C 6.976562 -1.609375 7.484375 -1.703125 7.953125 -1.890625 C 8.429688 -2.085938 8.847656 -2.359375 9.203125 -2.703125 C 9.566406 -3.054688 9.847656 -3.46875 10.046875 -3.9375 C 10.253906 -4.414062 10.359375 -4.929688 10.359375 -5.484375 C 10.359375 -6.046875 10.253906 -6.5625 10.046875 -7.03125 C 9.847656 -7.507812 9.566406 -7.921875 9.203125 -8.265625 C 8.847656 -8.617188 8.429688 -8.890625 7.953125 -9.078125 C 7.484375 -9.273438 6.976562 -9.375 6.4375 -9.375 C 5.894531 -9.375 5.390625 -9.273438 4.921875 -9.078125 C 4.453125 -8.890625 4.035156 -8.617188 3.671875 -8.265625 C 3.316406 -7.921875 3.035156 -7.507812 2.828125 -7.03125 C 2.628906 -6.5625 2.53125 -6.046875 2.53125 -5.484375 C 2.53125 -4.929688 2.628906 -4.414062 2.828125 -3.9375 C 3.035156 -3.46875 3.316406 -3.054688 3.671875 -2.703125 C 4.035156 -2.359375 4.453125 -2.085938 4.921875 -1.890625 C 5.390625 -1.703125 5.894531 -1.609375 6.4375 -1.609375 Z M 6.4375 -1.609375 "/></g></g></g><g fill="#ffffff" fill-opacity="1"><g transform="translate(296.623171, 170.37992)"><g><path d="M 3.3125 0 L 1.3125 0 L 1.3125 -10.953125 L 6.03125 -10.953125 C 6.582031 -10.953125 7.09375 -10.867188 7.5625 -10.703125 C 8.03125 -10.535156 8.429688 -10.289062 8.765625 -9.96875 C 9.097656 -9.65625 9.359375 -9.28125 9.546875 -8.84375 C 9.742188 -8.40625 9.84375 -7.921875 9.84375 -7.390625 C 9.84375 -6.867188 9.75 -6.394531 9.5625 -5.96875 C 9.375 -5.550781 9.113281 -5.191406 8.78125 -4.890625 C 8.445312 -4.585938 8.054688 -4.359375 7.609375 -4.203125 L 10.09375 0 L 7.78125 0 L 5.609375 -3.890625 C 5.546875 -3.890625 5.476562 -3.890625 5.40625 -3.890625 C 5.332031 -3.890625 5.257812 -3.890625 5.1875 -3.890625 L 3.3125 -3.890625 Z M 3.3125 -9.171875 L 3.3125 -5.578125 L 5.96875 -5.578125 C 6.320312 -5.578125 6.640625 -5.65625 6.921875 -5.8125 C 7.203125 -5.96875 7.421875 -6.179688 7.578125 -6.453125 C 7.742188 -6.722656 7.828125 -7.035156 7.828125 -7.390625 C 7.828125 -7.722656 7.742188 -8.019531 7.578125 -8.28125 C 7.410156 -8.550781 7.1875 -8.765625 6.90625 -8.921875 C 6.625 -9.085938 6.304688 -9.171875 5.953125 -9.171875 Z M 3.3125 -9.171875 "/></g></g></g><g fill="#ffffff" fill-opacity="1"><g transform="translate(307.485524, 170.37992)"><g><path d="M 3.3125 0 L 1.3125 0 L 1.3125 -10.953125 L 3.3125 -10.953125 Z M 3.3125 0 "/></g></g></g><g fill="#ffffff" fill-opacity="1"><g transform="translate(312.522927, 170.37992)"><g><path d="M 3.3125 0 L 1.3125 0 L 1.3125 -10.953125 L 3.03125 -10.953125 L 9 -3.28125 L 9 -10.953125 L 11 -10.953125 L 11 0 L 9.28125 0 L 3.3125 -7.65625 Z M 3.3125 0 "/></g></g></g><g fill="#ffffff" fill-opacity="1"><g transform="translate(325.254433, 170.37992)"><g><path d="M 6.3125 0.234375 C 5.675781 0.234375 5.066406 0.140625 4.484375 -0.046875 C 3.910156 -0.242188 3.382812 -0.515625 2.90625 -0.859375 C 2.425781 -1.210938 2.007812 -1.625 1.65625 -2.09375 C 1.300781 -2.570312 1.023438 -3.097656 0.828125 -3.671875 C 0.640625 -4.242188 0.546875 -4.847656 0.546875 -5.484375 C 0.546875 -6.128906 0.640625 -6.738281 0.828125 -7.3125 C 1.023438 -7.882812 1.300781 -8.40625 1.65625 -8.875 C 2.007812 -9.351562 2.425781 -9.765625 2.90625 -10.109375 C 3.394531 -10.460938 3.925781 -10.734375 4.5 -10.921875 C 5.082031 -11.117188 5.695312 -11.21875 6.34375 -11.21875 C 6.8125 -11.21875 7.273438 -11.160156 7.734375 -11.046875 C 8.203125 -10.941406 8.648438 -10.78125 9.078125 -10.5625 C 9.503906 -10.34375 9.894531 -10.078125 10.25 -9.765625 C 10.601562 -9.453125 10.90625 -9.09375 11.15625 -8.6875 C 11.40625 -8.28125 11.582031 -7.832031 11.6875 -7.34375 L 9.65625 -7.34375 C 9.363281 -7.976562 8.925781 -8.472656 8.34375 -8.828125 C 7.757812 -9.191406 7.078125 -9.375 6.296875 -9.375 C 5.785156 -9.375 5.300781 -9.28125 4.84375 -9.09375 C 4.382812 -8.914062 3.984375 -8.65625 3.640625 -8.3125 C 3.296875 -7.96875 3.023438 -7.554688 2.828125 -7.078125 C 2.628906 -6.597656 2.53125 -6.066406 2.53125 -5.484375 C 2.53125 -4.890625 2.628906 -4.351562 2.828125 -3.875 C 3.023438 -3.40625 3.296875 -3 3.640625 -2.65625 C 3.984375 -2.320312 4.382812 -2.0625 4.84375 -1.875 C 5.300781 -1.695312 5.785156 -1.609375 6.296875 -1.609375 C 6.953125 -1.609375 7.519531 -1.71875 8 -1.9375 C 8.476562 -2.164062 8.863281 -2.472656 9.15625 -2.859375 C 9.457031 -3.253906 9.660156 -3.707031 9.765625 -4.21875 L 6.21875 -4.21875 L 6.21875 -5.890625 L 11.9375 -5.890625 C 11.945312 -4.992188 11.828125 -4.171875 11.578125 -3.421875 C 11.328125 -2.671875 10.957031 -2.019531 10.46875 -1.46875 C 9.988281 -0.925781 9.398438 -0.503906 8.703125 -0.203125 C 8.003906 0.0859375 7.207031 0.234375 6.3125 0.234375 Z M 6.3125 0.234375 "/></g></g></g><g fill="#ffffff" fill-opacity="1"><g transform="translate(338.163184, 170.37992)"><g/></g></g><g fill="#ffffff" fill-opacity="1"><g transform="translate(342.612464, 170.37992)"><g><path d="M 8.265625 0 L 1.3125 0 L 1.3125 -10.953125 L 3.3125 -10.953125 L 3.3125 -1.796875 L 8.265625 -1.796875 Z M 8.265625 0 "/></g></g></g><g fill="#ffffff" fill-opacity="1"><g transform="translate(351.621802, 170.37992)"><g><path d="M 8.265625 0 L 1.3125 0 L 1.3125 -10.953125 L 3.3125 -10.953125 L 3.3125 -1.796875 L 8.265625 -1.796875 Z M 8.265625 0 "/></g></g></g><g fill="#ffffff" fill-opacity="1"><g transform="translate(360.63114, 170.37992)"><g><path d="M 6.3125 0.234375 C 5.664062 0.234375 5.050781 0.140625 4.46875 -0.046875 C 3.894531 -0.242188 3.367188 -0.515625 2.890625 -0.859375 C 2.410156 -1.210938 1.992188 -1.625 1.640625 -2.09375 C 1.285156 -2.570312 1.007812 -3.097656 0.8125 -3.671875 C 0.625 -4.253906 0.53125 -4.863281 0.53125 -5.5 C 0.53125 -6.132812 0.625 -6.738281 0.8125 -7.3125 C 1.007812 -7.882812 1.285156 -8.40625 1.640625 -8.875 C 1.992188 -9.351562 2.410156 -9.765625 2.890625 -10.109375 C 3.367188 -10.460938 3.894531 -10.734375 4.46875 -10.921875 C 5.050781 -11.117188 5.664062 -11.21875 6.3125 -11.21875 C 6.894531 -11.21875 7.46875 -11.128906 8.03125 -10.953125 C 8.601562 -10.785156 9.132812 -10.523438 9.625 -10.171875 C 10.125 -9.816406 10.546875 -9.367188 10.890625 -8.828125 C 11.234375 -8.296875 11.472656 -7.664062 11.609375 -6.9375 L 9.5625 -6.9375 C 9.414062 -7.5 9.179688 -7.957031 8.859375 -8.3125 C 8.535156 -8.675781 8.148438 -8.941406 7.703125 -9.109375 C 7.265625 -9.285156 6.785156 -9.375 6.265625 -9.375 C 5.742188 -9.375 5.257812 -9.28125 4.8125 -9.09375 C 4.363281 -8.914062 3.96875 -8.65625 3.625 -8.3125 C 3.28125 -7.96875 3.007812 -7.554688 2.8125 -7.078125 C 2.625 -6.597656 2.53125 -6.066406 2.53125 -5.484375 C 2.53125 -4.890625 2.625 -4.351562 2.8125 -3.875 C 3.007812 -3.40625 3.28125 -3 3.625 -2.65625 C 3.96875 -2.320312 4.363281 -2.0625 4.8125 -1.875 C 5.257812 -1.695312 5.742188 -1.609375 6.265625 -1.609375 C 6.785156 -1.609375 7.265625 -1.691406 7.703125 -1.859375 C 8.148438 -2.035156 8.535156 -2.300781 8.859375 -2.65625 C 9.179688 -3.019531 9.410156 -3.484375 9.546875 -4.046875 L 11.609375 -4.046875 C 11.472656 -3.316406 11.234375 -2.679688 10.890625 -2.140625 C 10.546875 -1.597656 10.128906 -1.148438 9.640625 -0.796875 C 9.148438 -0.453125 8.617188 -0.191406 8.046875 -0.015625 C 7.472656 0.148438 6.894531 0.234375 6.3125 0.234375 Z M 6.3125 0.234375 "/></g></g></g><g fill="#38b6ff" fill-opacity="1"><g transform="translate(159.440414, 200.899981)"><g><path d="M 5.984375 -3.703125 L 0.921875 -3.703125 L 0.921875 -4.828125 L 5.984375 -4.828125 Z M 5.984375 -3.703125 "/></g></g></g><g fill="#38b6ff" fill-opacity="1"><g transform="translate(166.673174, 200.899981)"><g><path d="M 2.828125 0 L 1.453125 0 L 1.453125 -10.625 L 8.515625 -10.625 L 8.515625 -9.375 L 2.828125 -9.375 L 2.828125 -5.640625 L 7.765625 -5.640625 L 7.765625 -4.453125 L 2.828125 -4.453125 Z M 2.828125 0 "/></g></g></g><g fill="#38b6ff" fill-opacity="1"><g transform="translate(175.991356, 200.899981)"><g><path d="M 8 0 L 1.453125 0 L 1.453125 -10.625 L 2.828125 -10.625 L 2.828125 -1.25 L 8 -1.25 Z M 8 0 "/></g></g></g><g fill="#38b6ff" fill-opacity="1"><g transform="translate(184.630022, 200.899981)"><g><path d="M 6.3125 0.21875 C 5.6875 0.21875 5.085938 0.125 4.515625 -0.0625 C 3.953125 -0.25 3.429688 -0.507812 2.953125 -0.84375 C 2.484375 -1.1875 2.070312 -1.585938 1.71875 -2.046875 C 1.375 -2.515625 1.109375 -3.023438 0.921875 -3.578125 C 0.734375 -4.128906 0.640625 -4.710938 0.640625 -5.328125 C 0.640625 -5.941406 0.734375 -6.523438 0.921875 -7.078125 C 1.109375 -7.640625 1.375 -8.148438 1.71875 -8.609375 C 2.070312 -9.066406 2.484375 -9.460938 2.953125 -9.796875 C 3.429688 -10.140625 3.953125 -10.398438 4.515625 -10.578125 C 5.085938 -10.765625 5.6875 -10.859375 6.3125 -10.859375 C 6.9375 -10.859375 7.53125 -10.765625 8.09375 -10.578125 C 8.664062 -10.398438 9.1875 -10.140625 9.65625 -9.796875 C 10.132812 -9.460938 10.546875 -9.066406 10.890625 -8.609375 C 11.242188 -8.148438 11.515625 -7.640625 11.703125 -7.078125 C 11.898438 -6.523438 12 -5.941406 12 -5.328125 C 12 -4.710938 11.898438 -4.128906 11.703125 -3.578125 C 11.515625 -3.023438 11.242188 -2.515625 10.890625 -2.046875 C 10.546875 -1.585938 10.132812 -1.1875 9.65625 -0.84375 C 9.1875 -0.507812 8.664062 -0.25 8.09375 -0.0625 C 7.53125 0.125 6.9375 0.21875 6.3125 0.21875 Z M 6.3125 -1.078125 C 6.90625 -1.078125 7.460938 -1.179688 7.984375 -1.390625 C 8.503906 -1.609375 8.960938 -1.910156 9.359375 -2.296875 C 9.753906 -2.679688 10.0625 -3.128906 10.28125 -3.640625 C 10.5 -4.160156 10.609375 -4.722656 10.609375 -5.328125 C 10.609375 -5.929688 10.5 -6.488281 10.28125 -7 C 10.0625 -7.519531 9.753906 -7.972656 9.359375 -8.359375 C 8.960938 -8.742188 8.503906 -9.046875 7.984375 -9.265625 C 7.460938 -9.484375 6.90625 -9.59375 6.3125 -9.59375 C 5.71875 -9.59375 5.160156 -9.484375 4.640625 -9.265625 C 4.117188 -9.046875 3.660156 -8.742188 3.265625 -8.359375 C 2.878906 -7.972656 2.570312 -7.519531 2.34375 -7 C 2.125 -6.488281 2.015625 -5.929688 2.015625 -5.328125 C 2.015625 -4.722656 2.125 -4.160156 2.34375 -3.640625 C 2.570312 -3.128906 2.878906 -2.679688 3.265625 -2.296875 C 3.660156 -1.910156 4.117188 -1.609375 4.640625 -1.390625 C 5.160156 -1.179688 5.71875 -1.078125 6.3125 -1.078125 Z M 6.3125 -1.078125 "/></g></g></g><g fill="#38b6ff" fill-opacity="1"><g transform="translate(197.58794, 200.899981)"><g><path d="M 6.3125 0.21875 C 5.6875 0.21875 5.085938 0.125 4.515625 -0.0625 C 3.953125 -0.25 3.429688 -0.507812 2.953125 -0.84375 C 2.484375 -1.1875 2.070312 -1.585938 1.71875 -2.046875 C 1.375 -2.515625 1.109375 -3.023438 0.921875 -3.578125 C 0.734375 -4.128906 0.640625 -4.710938 0.640625 -5.328125 C 0.640625 -5.941406 0.734375 -6.523438 0.921875 -7.078125 C 1.109375 -7.640625 1.375 -8.148438 1.71875 -8.609375 C 2.070312 -9.066406 2.484375 -9.460938 2.953125 -9.796875 C 3.429688 -10.140625 3.953125 -10.398438 4.515625 -10.578125 C 5.085938 -10.765625 5.6875 -10.859375 6.3125 -10.859375 C 6.9375 -10.859375 7.53125 -10.765625 8.09375 -10.578125 C 8.664062 -10.398438 9.1875 -10.140625 9.65625 -9.796875 C 10.132812 -9.460938 10.546875 -9.066406 10.890625 -8.609375 C 11.242188 -8.148438 11.515625 -7.640625 11.703125 -7.078125 C 11.898438 -6.523438 12 -5.941406 12 -5.328125 C 12 -4.710938 11.898438 -4.128906 11.703125 -3.578125 C 11.515625 -3.023438 11.242188 -2.515625 10.890625 -2.046875 C 10.546875 -1.585938 10.132812 -1.1875 9.65625 -0.84375 C 9.1875 -0.507812 8.664062 -0.25 8.09375 -0.0625 C 7.53125 0.125 6.9375 0.21875 6.3125 0.21875 Z M 6.3125 -1.078125 C 6.90625 -1.078125 7.460938 -1.179688 7.984375 -1.390625 C 8.503906 -1.609375 8.960938 -1.910156 9.359375 -2.296875 C 9.753906 -2.679688 10.0625 -3.128906 10.28125 -3.640625 C 10.5 -4.160156 10.609375 -4.722656 10.609375 -5.328125 C 10.609375 -5.929688 10.5 -6.488281 10.28125 -7 C 10.0625 -7.519531 9.753906 -7.972656 9.359375 -8.359375 C 8.960938 -8.742188 8.503906 -9.046875 7.984375 -9.265625 C 7.460938 -9.484375 6.90625 -9.59375 6.3125 -9.59375 C 5.71875 -9.59375 5.160156 -9.484375 4.640625 -9.265625 C 4.117188 -9.046875 3.660156 -8.742188 3.265625 -8.359375 C 2.878906 -7.972656 2.570312 -7.519531 2.34375 -7 C 2.125 -6.488281 2.015625 -5.929688 2.015625 -5.328125 C 2.015625 -4.722656 2.125 -4.160156 2.34375 -3.640625 C 2.570312 -3.128906 2.878906 -2.679688 3.265625 -2.296875 C 3.660156 -1.910156 4.117188 -1.609375 4.640625 -1.390625 C 5.160156 -1.179688 5.71875 -1.078125 6.3125 -1.078125 Z M 6.3125 -1.078125 "/></g></g></g><g fill="#38b6ff" fill-opacity="1"><g transform="translate(210.545856, 200.899981)"><g><path d="M 2.828125 0 L 1.453125 0 L 1.453125 -10.625 L 5.96875 -10.625 C 6.476562 -10.625 6.945312 -10.546875 7.375 -10.390625 C 7.8125 -10.234375 8.1875 -10.003906 8.5 -9.703125 C 8.8125 -9.410156 9.050781 -9.0625 9.21875 -8.65625 C 9.394531 -8.25 9.484375 -7.796875 9.484375 -7.296875 C 9.484375 -6.773438 9.382812 -6.300781 9.1875 -5.875 C 9 -5.457031 8.726562 -5.101562 8.375 -4.8125 C 8.03125 -4.53125 7.625 -4.328125 7.15625 -4.203125 L 9.71875 0 L 8.125 0 L 5.765625 -4 C 5.710938 -4 5.65625 -4 5.59375 -4 C 5.539062 -4 5.484375 -4 5.421875 -4 L 2.828125 -4 Z M 2.828125 -9.390625 L 2.828125 -5.171875 L 5.9375 -5.171875 C 6.351562 -5.179688 6.722656 -5.269531 7.046875 -5.4375 C 7.367188 -5.613281 7.625 -5.859375 7.8125 -6.171875 C 8.007812 -6.492188 8.109375 -6.863281 8.109375 -7.28125 C 8.109375 -7.6875 8.007812 -8.046875 7.8125 -8.359375 C 7.625 -8.679688 7.363281 -8.929688 7.03125 -9.109375 C 6.695312 -9.296875 6.320312 -9.390625 5.90625 -9.390625 Z M 2.828125 -9.390625 "/></g></g></g><g fill="#38b6ff" fill-opacity="1"><g transform="translate(221.082488, 200.899981)"><g><path d="M 2.828125 0 L 1.453125 0 L 1.453125 -10.625 L 2.828125 -10.625 Z M 2.828125 0 "/></g></g></g><g fill="#38b6ff" fill-opacity="1"><g transform="translate(225.690886, 200.899981)"><g><path d="M 9.171875 -2.296875 L 9.171875 -10.625 L 10.546875 -10.625 L 10.546875 0 L 9.375 0 L 2.828125 -8.3125 L 2.828125 0 L 1.453125 0 L 1.453125 -10.625 L 2.609375 -10.625 L 9.15625 -2.296875 Z M 9.171875 -2.296875 "/></g></g></g><g fill="#38b6ff" fill-opacity="1"><g transform="translate(238.008333, 200.899981)"><g><path d="M 6.21875 0.203125 C 5.601562 0.203125 5.015625 0.109375 4.453125 -0.078125 C 3.890625 -0.265625 3.375 -0.523438 2.90625 -0.859375 C 2.445312 -1.191406 2.046875 -1.585938 1.703125 -2.046875 C 1.367188 -2.515625 1.109375 -3.023438 0.921875 -3.578125 C 0.734375 -4.128906 0.640625 -4.710938 0.640625 -5.328125 C 0.640625 -5.941406 0.734375 -6.523438 0.921875 -7.078125 C 1.109375 -7.640625 1.367188 -8.148438 1.703125 -8.609375 C 2.046875 -9.066406 2.445312 -9.460938 2.90625 -9.796875 C 3.375 -10.140625 3.890625 -10.398438 4.453125 -10.578125 C 5.015625 -10.765625 5.601562 -10.859375 6.21875 -10.859375 C 6.78125 -10.859375 7.332031 -10.78125 7.875 -10.625 C 8.425781 -10.46875 8.929688 -10.234375 9.390625 -9.921875 C 9.847656 -9.617188 10.242188 -9.242188 10.578125 -8.796875 C 10.910156 -8.347656 11.148438 -7.84375 11.296875 -7.28125 L 9.890625 -7.28125 C 9.691406 -7.757812 9.410156 -8.171875 9.046875 -8.515625 C 8.679688 -8.867188 8.253906 -9.132812 7.765625 -9.3125 C 7.285156 -9.5 6.757812 -9.59375 6.1875 -9.59375 C 5.613281 -9.59375 5.070312 -9.488281 4.5625 -9.28125 C 4.0625 -9.070312 3.617188 -8.773438 3.234375 -8.390625 C 2.859375 -8.003906 2.5625 -7.550781 2.34375 -7.03125 C 2.132812 -6.507812 2.03125 -5.941406 2.03125 -5.328125 C 2.03125 -4.703125 2.132812 -4.128906 2.34375 -3.609375 C 2.5625 -3.085938 2.859375 -2.632812 3.234375 -2.25 C 3.617188 -1.875 4.0625 -1.582031 4.5625 -1.375 C 5.070312 -1.175781 5.613281 -1.078125 6.1875 -1.078125 C 6.789062 -1.078125 7.320312 -1.160156 7.78125 -1.328125 C 8.25 -1.492188 8.648438 -1.726562 8.984375 -2.03125 C 9.316406 -2.332031 9.582031 -2.679688 9.78125 -3.078125 C 9.988281 -3.472656 10.128906 -3.894531 10.203125 -4.34375 L 6.140625 -4.34375 L 6.140625 -5.59375 L 11.640625 -5.59375 C 11.640625 -4.789062 11.519531 -4.035156 11.28125 -3.328125 C 11.039062 -2.628906 10.6875 -2.015625 10.21875 -1.484375 C 9.757812 -0.960938 9.191406 -0.550781 8.515625 -0.25 C 7.847656 0.0507812 7.082031 0.203125 6.21875 0.203125 Z M 6.21875 0.203125 "/></g></g></g><g fill="#38b6ff" fill-opacity="1"><g transform="translate(250.614777, 200.899981)"><g/></g></g><g fill="#38b6ff" fill-opacity="1"><g transform="translate(254.902936, 200.899981)"><g><path d="M 8.578125 0 L 1.453125 0 L 1.453125 -10.625 L 8.515625 -10.625 L 8.515625 -9.375 L 2.828125 -9.375 L 2.828125 -6 L 7.765625 -6 L 7.765625 -4.8125 L 2.828125 -4.8125 L 2.828125 -1.25 L 8.578125 -1.25 Z M 8.578125 0 "/></g></g></g><g fill="#38b6ff" fill-opacity="1"><g transform="translate(264.377327, 200.899981)"><g><path d="M 1.875 0 L 0.234375 0 L 4.296875 -5.53125 L 0.5 -10.625 L 2.140625 -10.625 L 5.15625 -6.5 L 8.1875 -10.625 L 9.828125 -10.625 L 6.03125 -5.53125 L 10.09375 0 L 8.453125 0 L 5.15625 -4.5625 Z M 1.875 0 "/></g></g></g><g fill="#38b6ff" fill-opacity="1"><g transform="translate(275.031123, 200.899981)"><g><path d="M 2.828125 0 L 1.453125 0 L 1.453125 -10.625 L 5.8125 -10.625 C 6.320312 -10.625 6.789062 -10.535156 7.21875 -10.359375 C 7.65625 -10.191406 8.03125 -9.953125 8.34375 -9.640625 C 8.664062 -9.335938 8.910156 -8.972656 9.078125 -8.546875 C 9.253906 -8.117188 9.34375 -7.65625 9.34375 -7.15625 C 9.34375 -6.632812 9.253906 -6.160156 9.078125 -5.734375 C 8.910156 -5.304688 8.671875 -4.9375 8.359375 -4.625 C 8.046875 -4.3125 7.675781 -4.066406 7.25 -3.890625 C 6.820312 -3.722656 6.351562 -3.640625 5.84375 -3.640625 L 2.828125 -3.640625 Z M 2.828125 -9.390625 L 2.828125 -4.890625 L 5.78125 -4.890625 C 6.195312 -4.890625 6.566406 -4.988281 6.890625 -5.1875 C 7.222656 -5.382812 7.484375 -5.65625 7.671875 -6 C 7.859375 -6.34375 7.953125 -6.726562 7.953125 -7.15625 C 7.953125 -7.457031 7.894531 -7.742188 7.78125 -8.015625 C 7.675781 -8.285156 7.523438 -8.519531 7.328125 -8.71875 C 7.128906 -8.925781 6.894531 -9.085938 6.625 -9.203125 C 6.363281 -9.328125 6.078125 -9.390625 5.765625 -9.390625 Z M 2.828125 -9.390625 "/></g></g></g><g fill="#38b6ff" fill-opacity="1"><g transform="translate(285.021014, 200.899981)"><g><path d="M 8.578125 0 L 1.453125 0 L 1.453125 -10.625 L 8.515625 -10.625 L 8.515625 -9.375 L 2.828125 -9.375 L 2.828125 -6 L 7.765625 -6 L 7.765625 -4.8125 L 2.828125 -4.8125 L 2.828125 -1.25 L 8.578125 -1.25 Z M 8.578125 0 "/></g></g></g><g fill="#38b6ff" fill-opacity="1"><g transform="translate(294.495405, 200.899981)"><g><path d="M 2.828125 0 L 1.453125 0 L 1.453125 -10.625 L 5.96875 -10.625 C 6.476562 -10.625 6.945312 -10.546875 7.375 -10.390625 C 7.8125 -10.234375 8.1875 -10.003906 8.5 -9.703125 C 8.8125 -9.410156 9.050781 -9.0625 9.21875 -8.65625 C 9.394531 -8.25 9.484375 -7.796875 9.484375 -7.296875 C 9.484375 -6.773438 9.382812 -6.300781 9.1875 -5.875 C 9 -5.457031 8.726562 -5.101562 8.375 -4.8125 C 8.03125 -4.53125 7.625 -4.328125 7.15625 -4.203125 L 9.71875 0 L 8.125 0 L 5.765625 -4 C 5.710938 -4 5.65625 -4 5.59375 -4 C 5.539062 -4 5.484375 -4 5.421875 -4 L 2.828125 -4 Z M 2.828125 -9.390625 L 2.828125 -5.171875 L 5.9375 -5.171875 C 6.351562 -5.179688 6.722656 -5.269531 7.046875 -5.4375 C 7.367188 -5.613281 7.625 -5.859375 7.8125 -6.171875 C 8.007812 -6.492188 8.109375 -6.863281 8.109375 -7.28125 C 8.109375 -7.6875 8.007812 -8.046875 7.8125 -8.359375 C 7.625 -8.679688 7.363281 -8.929688 7.03125 -9.109375 C 6.695312 -9.296875 6.320312 -9.390625 5.90625 -9.390625 Z M 2.828125 -9.390625 "/></g></g></g><g fill="#38b6ff" fill-opacity="1"><g transform="translate(305.032037, 200.899981)"><g><path d="M 5.125 0 L 3.75 0 L 3.75 -9.390625 L 0.390625 -9.390625 L 0.390625 -10.625 L 8.5 -10.625 L 8.5 -9.390625 L 5.125 -9.390625 Z M 5.125 0 "/></g></g></g><g fill="#38b6ff" fill-opacity="1"><g transform="translate(314.248684, 200.899981)"><g><path d="M 5.984375 -3.703125 L 0.921875 -3.703125 L 0.921875 -4.828125 L 5.984375 -4.828125 Z M 5.984375 -3.703125 "/></g></g></g><g clip-path="url(#efed5def37)"><path fill="#38b6ff" d="M 21.777344 241.039062 L 114.386719 241.039062 L 114.386719 233.285156 L 71.613281 190.855469 L 60.84375 180.085938 L 50.070312 190.855469 L 7.640625 233.285156 L 7.640625 241.039062 Z M 53.109375 207.371094 L 59.835938 207.371094 L 59.835938 214.4375 L 53.109375 214.4375 Z M 61.847656 207.371094 L 68.574219 207.371094 L 68.574219 214.4375 L 61.847656 214.4375 Z M 53.109375 216.109375 L 59.835938 216.109375 L 59.835938 223.175781 L 53.109375 223.175781 Z M 61.847656 216.109375 L 68.574219 216.109375 L 68.574219 223.175781 L 61.847656 223.175781 Z M 71.613281 141.703125 L 64.226562 133.953125 L 79.390625 133.953125 Z M 93.503906 141.703125 L 85.773438 133.953125 L 100.933594 133.953125 Z M 114.386719 140.675781 L 107.660156 133.953125 L 114.386719 133.953125 Z M 104.296875 136.652344 L 114.40625 146.757812 L 114.40625 162.585938 L 107.339844 155.519531 L 96.222656 144.746094 Z M 82.730469 180.085938 L 114.386719 211.738281 L 114.386719 227.566406 L 74.65625 187.835938 Z M 79.710938 177.066406 L 71.613281 185.140625 L 63.863281 177.066406 L 71.613281 169.3125 Z M 68.9375 166.269531 L 60.863281 174.34375 L 53.109375 166.269531 L 60.863281 158.195312 Z M 71.613281 163.25 L 63.863281 155.496094 L 71.613281 147.421875 L 79.6875 155.496094 Z M 74.65625 166.269531 L 82.730469 158.195312 L 93.503906 169.3125 L 114.386719 190.195312 L 114.386719 206.019531 L 85.429688 177.066406 Z M 96.203125 166.269531 L 104.277344 158.195312 L 114.386719 168.304688 L 114.386719 184.132812 Z M 101.257812 155.496094 L 93.503906 163.25 L 85.429688 155.496094 L 93.503906 147.421875 Z M 90.484375 144.726562 L 82.730469 152.476562 L 74.65625 144.726562 L 82.730469 136.652344 Z M 68.9375 144.726562 L 60.863281 152.476562 L 53.109375 144.726562 L 60.863281 136.652344 Z M 50.070312 141.703125 L 57.820312 133.953125 L 42.335938 133.953125 Z M 28.523438 141.703125 L 35.933594 133.953125 L 20.769531 133.953125 Z M 7.640625 140.675781 L 14.367188 133.953125 L 7.640625 133.953125 Z M 17.40625 136.652344 L 7.640625 146.738281 L 7.640625 162.566406 L 25.480469 144.726562 Z M 39.296875 180.085938 L 7.640625 211.738281 L 7.640625 227.566406 L 47.050781 187.835938 Z M 41.996094 177.066406 L 50.070312 185.140625 L 58.144531 177.066406 L 50.070312 169.3125 Z M 50.070312 163.25 L 58.144531 155.496094 L 50.070312 147.421875 L 41.996094 155.496094 Z M 47.050781 166.269531 L 39.296875 158.195312 L 28.523438 169.3125 L 7.640625 190.195312 L 7.640625 206.019531 L 36.253906 177.066406 Z M 25.480469 166.269531 L 17.40625 158.195312 L 7.640625 168.304688 L 7.640625 184.132812 Z M 20.429688 155.496094 L 28.503906 163.25 L 36.253906 155.496094 L 28.523438 147.421875 Z M 31.222656 144.726562 L 39.296875 152.476562 L 47.050781 144.726562 L 39.296875 136.652344 Z M 31.222656 144.726562 " fill-opacity="1" fill-rule="nonzero"/></g></svg>